<svg xmlns="http://www.w3.org/2000/svg" viewBox="0 0 64 64" role="img" aria-label="Marine Chariot Analytics">
  <defs>
    <linearGradient id="marine" x1="10" x2="54" y1="10" y2="54" gradientUnits="userSpaceOnUse">
      <stop stop-color="#ff6b9d"/>
      <stop offset="0.58" stop-color="#a78bfa"/>
      <stop offset="1" stop-color="#67e8f9"/>
    </linearGradient>
  </defs>
  <rect width="64" height="64" rx="14" fill="#080a12"/>
  <rect x="6" y="6" width="52" height="52" rx="12" fill="url(#marine)"/>
  <path
    d="M33.5 13.5c1.5 0 2.7 1.1 3 2.6l1.4 8.1 8.1 1.4c1.5.3 2.6 1.5 2.6 3s-1.1 2.7-2.6 3l-8.1 1.4-1.4 8.1c-.3 1.5-1.5 2.6-3 2.6s-2.7-1.1-3-2.6l-1.4-8.1-8.1-1.4c-1.5-.3-2.6-1.5-2.6-3s1.1-2.7 2.6-3l8.1-1.4 1.4-8.1c.3-1.5 1.5-2.6 3-2.6Z"
    fill="none"
    stroke="white"
    stroke-linejoin="round"
    stroke-width="4"
  />
  <path d="M17 43h8M21 39v8M45 15h5M47.5 12.5v5" stroke="white" stroke-linecap="round" stroke-width="3"/>
</svg>
